# xmcd CD database file
#
# Track frame offsets:
#	150
#	26040
#	54327
#	71682
#	85197
#	98550
#	116502
#	134102
#	153607
#	171720
#	183395
#	206905
#	222885
#	244775
#	261270
#	282860
#	298302
#	320130
#
# Disc length: 4528 seconds
#
# Revision: 0
# Processed by: cddbd v1.5.1PL2 Copyright (c) Steve Scherf et al.
# Submitted via: CDex 1.40Release
#
DISCID=2511ae12
DTITLE=Lenny Kravitz - The Best Of
DYEAR=1900
DGENRE=Blues
TTITLE0=Let Love Rule
TTITLE1=I Build This Garden For Us
TTITLE2=Mr. Cab Driver
TTITLE3=Blues For Sister Someone
TTITLE4=Flower Child
TTITLE5=Fields Of Joy
TTITLE6=Always On The Run
TTITLE7=Stand By My Woman
TTITLE8=It Ain't Over 'Til It's Over
TTITLE9=Stop Draggin' Around
TTITLE10=What The .... Are We Saying?
TTITLE11=Are You Gonna Go My Way
TTITLE12=Belive
TTITLE13=Is There Any Love
TTITLE14=Eleutheria
TTITLE15=Rock And Roll Is Dead
TTITLE16=Circus
TTITLE17=Tunnel Vision
EXTD=ID3G: 0
EXTT0=
EXTT1=
EXTT2=
EXTT3=
EXTT4=
EXTT5=
EXTT6=
EXTT7=
EXTT8=
EXTT9=
EXTT10=
EXTT11=
EXTT12=
EXTT13=
EXTT14=
EXTT15=
EXTT16=
EXTT17=
PLAYORDER=
